<svg width="26" height="26" viewBox="0 0 26 26" fill="none" xmlns="http://www.w3.org/2000/svg">
<path d="M11.856 6.44799V9.82149C11.8649 10.2324 11.7495 10.6364 11.525 10.9806C11.3005 11.3248 10.9772 11.5932 10.5976 11.7507C10.3455 11.8557 10.0752 11.91 9.80204 11.9106H6.42204C5.87676 11.9106 5.35355 11.6952 4.9664 11.3112C4.57924 10.9272 4.3595 10.4058 4.35504 9.86049V6.48699C4.3547 6.21564 4.40796 5.94689 4.51176 5.69617C4.61556 5.44545 4.76787 5.21771 4.95992 5.02601C5.15198 4.83432 5.38001 4.68244 5.63093 4.57912C5.88184 4.47579 6.15069 4.42304 6.42204 4.42389H9.80204C10.3406 4.42716 10.8567 4.64054 11.2403 5.01859C11.624 5.39664 11.8449 5.9095 11.856 6.44799ZM11.856 16.1915V19.565C11.8567 20.1108 11.6408 20.6346 11.2558 21.0214C10.8707 21.4082 10.3478 21.6264 9.80204 21.6281H6.42204C5.87452 21.6281 5.34936 21.4109 4.96183 21.0241C4.5743 20.6373 4.35608 20.1125 4.35504 19.565V16.1915C4.3578 15.6457 4.57699 15.1233 4.96452 14.7389C5.35204 14.3546 5.87624 14.1397 6.42204 14.1414H9.80204C10.3461 14.1414 10.868 14.3573 11.2531 14.7416C11.6382 15.126 11.855 15.6474 11.856 16.1915ZM21.658 6.44799V9.82149C21.6658 10.3629 21.4601 10.8856 21.0854 11.2766C20.7108 11.6675 20.1973 11.8953 19.656 11.9106H16.289C15.7438 11.9106 15.2206 11.6952 14.8334 11.3112C14.4462 10.9272 14.2265 10.4058 14.222 9.86049V6.48699C14.2217 6.21564 14.275 5.94689 14.3788 5.69617C14.4826 5.44545 14.6349 5.21771 14.8269 5.02601C15.019 4.83432 15.247 4.68244 15.4979 4.57912C15.7488 4.47579 16.0177 4.42304 16.289 4.42389H19.656C20.1856 4.44044 20.6885 4.65968 21.0611 5.03634C21.4336 5.413 21.6473 5.91832 21.658 6.44799ZM21.658 16.2175V19.591C21.6589 20.1279 21.4502 20.644 21.0763 21.0294C20.7023 21.4147 20.1928 21.6388 19.656 21.6541H16.289C15.7415 21.6541 15.2164 21.4369 14.8288 21.0501C14.4413 20.6633 14.2231 20.1385 14.222 19.591V16.2175C14.2251 15.6718 14.4444 15.1496 14.8319 14.7653C15.2193 14.381 15.7433 14.166 16.289 14.1674H19.656C20.19 14.1842 20.6967 14.407 21.0699 14.7892C21.4432 15.1714 21.6539 15.6833 21.658 16.2175Z" fill="#837ECB"/>
<path d="M25.025 10.0035C24.7677 10.0001 24.5219 9.89652 24.3398 9.71467C24.1577 9.53283 24.0538 9.28711 24.05 9.0298V5.0206C24.0594 4.61437 23.9858 4.2105 23.8338 3.83365C23.6818 3.45681 23.4546 3.1149 23.166 2.8288C22.5949 2.26402 21.8243 1.9469 21.021 1.9461H17.056C16.7979 1.9461 16.5503 1.84373 16.3675 1.66145C16.1848 1.47916 16.0817 1.23184 16.081 0.9737C16.0814 0.715339 16.1843 0.467678 16.3671 0.285111C16.5499 0.102544 16.7977 -2.29654e-07 17.056 0H21.06C22.3774 0.0331961 23.6288 0.583267 24.544 1.5314C25.0071 1.99199 25.3741 2.53983 25.6241 3.1432C25.874 3.74658 26.0018 4.39352 26 5.0466V9.0558C25.9929 9.30962 25.8871 9.55066 25.705 9.72765C25.5229 9.90463 25.279 10.0036 25.025 10.0035ZM21.021 26H17.056C16.7979 26 16.5503 25.8976 16.3675 25.7153C16.1848 25.5331 16.0817 25.2857 16.081 25.0276C16.0814 24.7692 16.1843 24.5216 16.3671 24.339C16.5499 24.1564 16.7977 24.0539 17.056 24.0539H21.06C21.6596 24.0491 22.2441 23.8657 22.7389 23.5272C23.2337 23.1887 23.6164 22.7103 23.8381 22.1533C23.9852 21.7843 24.0572 21.3896 24.05 20.9924V17.0222C24.0504 16.7638 24.1533 16.5162 24.3361 16.3336C24.5189 16.151 24.7667 16.0485 25.025 16.0485C25.2834 16.0485 25.5312 16.151 25.714 16.3336C25.8968 16.5162 25.9997 16.7638 26 17.0222V20.9924C26.0025 21.9767 25.7116 22.9395 25.1644 23.7578C24.6173 24.5761 23.8387 25.2128 22.9281 25.5866C22.3236 25.8349 21.6749 25.9636 21.021 25.961V26ZM8.99605 26H4.99205C4.33465 25.9995 3.68378 25.8696 3.07661 25.6175C2.46945 25.3655 1.9179 24.9963 1.45345 24.531C0.990009 24.0663 0.623021 23.5145 0.373592 22.9075C0.124163 22.3004 -0.00278646 21.65 4.63855e-05 20.9937V17.0235C0.000390867 16.7651 0.103266 16.5175 0.286077 16.3349C0.468887 16.1523 0.716685 16.0498 0.975046 16.0498C1.23341 16.0498 1.48121 16.1523 1.66402 16.3349C1.84683 16.5175 1.9497 16.7651 1.95005 17.0235V20.9937C1.95314 21.7977 2.27526 22.5677 2.84563 23.1344C3.416 23.7011 4.188 24.0183 4.99205 24.0162H8.99605C9.25441 24.0162 9.50221 24.1187 9.68502 24.3013C9.86783 24.4839 9.9707 24.7315 9.97105 24.9899C9.97122 25.1179 9.9461 25.2446 9.89713 25.3628C9.84816 25.4811 9.77631 25.5884 9.6857 25.6788C9.5951 25.7692 9.48752 25.8407 9.36917 25.8894C9.25081 25.938 9.12401 25.9628 8.99605 25.9623V26ZM0.975046 10.0035C0.717729 10.0001 0.471876 9.89652 0.289789 9.71467C0.107701 9.53283 0.0037491 9.28711 4.63855e-05 9.0298V5.0206C0.0034963 3.71048 0.527233 2.45538 1.45605 1.5314C2.39356 0.602497 3.65928 0.0803291 4.97905 0.0779999H8.98305C9.24141 0.0779997 9.48921 0.180544 9.67202 0.363111C9.85483 0.545678 9.9577 0.793339 9.95805 1.0517C9.95736 1.30984 9.85433 1.55716 9.67156 1.73945C9.48878 1.92174 9.24118 2.0241 8.98305 2.0241H4.97905C4.17489 2.02168 3.4027 2.33873 2.83225 2.90552C2.2618 3.47231 1.9398 4.24245 1.93705 5.0466V9.0558C1.93002 9.30739 1.82597 9.54652 1.64667 9.72315C1.46737 9.89979 1.22672 10.0002 0.975046 10.0035Z" fill="#837ECB"/>
</svg>
