<svg width="73" height="73" viewBox="0 0 73 73" fill="none" xmlns="http://www.w3.org/2000/svg">
<path d="M73 36.5C73 56.6584 56.6584 73 36.5 73C16.3416 73 0 56.6584 0 36.5C0 16.3416 16.3416 0 36.5 0C56.6584 0 73 16.3416 73 36.5ZM5.475 36.5C5.475 53.6346 19.3654 67.525 36.5 67.525C53.6346 67.525 67.525 53.6346 67.525 36.5C67.525 19.3654 53.6346 5.475 36.5 5.475C19.3654 5.475 5.475 19.3654 5.475 36.5Z" fill="black" fill-opacity="0.19"/>
<path d="M36.5 2.7375C36.5 1.22562 35.2726 -0.0106834 33.765 0.102592C27.5093 0.572616 21.4634 2.64896 16.2217 6.15136C10.2193 10.162 5.541 15.8626 2.7784 22.5321C0.0157985 29.2016 -0.707023 36.5405 0.701337 43.6208C2.1097 50.7011 5.58599 57.2048 10.6906 62.3094C15.7952 67.414 22.2989 70.8903 29.3792 72.2987C36.4595 73.707 43.7984 72.9842 50.4679 70.2216C57.1374 67.459 62.838 62.7807 66.8486 56.7783C70.351 51.5366 72.4274 45.4907 72.8974 39.235C73.0107 37.7274 71.7744 36.5 70.2625 36.5C68.7506 36.5 67.5375 37.728 67.4043 39.234C66.9468 44.4056 65.1969 49.3955 62.2963 53.7366C58.8873 58.8386 54.0418 62.8152 48.3728 65.1634C42.7037 67.5116 36.4656 68.126 30.4473 66.9289C24.4291 65.7318 18.9009 62.7769 14.562 58.438C10.2231 54.0991 7.26824 48.5709 6.07114 42.5527C4.87403 36.5344 5.48843 30.2963 7.83664 24.6272C10.1848 18.9582 14.1614 14.1127 19.2634 10.7037C23.6045 7.80307 28.5944 6.05317 33.766 5.59568C35.272 5.46246 36.5 4.24938 36.5 2.7375Z" fill="white"/>
<path d="M22.5945 40V37.3409L28.8075 31.5881C29.3359 31.0767 29.7791 30.6165 30.1371 30.2074C30.5007 29.7983 30.7763 29.3977 30.9638 29.0057C31.1513 28.608 31.245 28.179 31.245 27.7188C31.245 27.2074 31.1286 26.767 30.8956 26.3977C30.6626 26.0227 30.3445 25.7358 29.9411 25.5369C29.5376 25.3324 29.0803 25.2301 28.5689 25.2301C28.0348 25.2301 27.5689 25.3381 27.1712 25.554C26.7734 25.7699 26.4666 26.0795 26.2507 26.483C26.0348 26.8864 25.9268 27.3665 25.9268 27.9233H22.424C22.424 26.7812 22.6825 25.7898 23.1996 24.9489C23.7166 24.108 24.4411 23.4574 25.3729 22.9972C26.3047 22.5369 27.3786 22.3068 28.5945 22.3068C29.8445 22.3068 30.9325 22.5284 31.8587 22.9716C32.7905 23.4091 33.5149 24.017 34.032 24.7955C34.549 25.5739 34.8075 26.4659 34.8075 27.4716C34.8075 28.1307 34.6768 28.7812 34.4155 29.4233C34.1598 30.0653 33.7024 30.7784 33.0433 31.5625C32.3842 32.3409 31.4553 33.2756 30.2564 34.3665L27.7081 36.8636V36.983H35.0376V40H22.5945ZM44.5554 40.3835C43.0895 40.3778 41.8281 40.017 40.7713 39.3011C39.7202 38.5852 38.9105 37.5483 38.3423 36.1903C37.7798 34.8324 37.5014 33.1989 37.5071 31.2898C37.5071 29.3864 37.7884 27.7642 38.3509 26.4233C38.919 25.0824 39.7287 24.0625 40.7798 23.3636C41.8366 22.6591 43.0952 22.3068 44.5554 22.3068C46.0156 22.3068 47.2713 22.6591 48.3224 23.3636C49.3793 24.0682 50.1918 25.0909 50.7599 26.4318C51.3281 27.767 51.6094 29.3864 51.6037 31.2898C51.6037 33.2045 51.3196 34.8409 50.7514 36.1989C50.1889 37.5568 49.3821 38.5937 48.331 39.3097C47.2798 40.0256 46.0213 40.3835 44.5554 40.3835ZM44.5554 37.3239C45.5554 37.3239 46.3537 36.821 46.9503 35.8153C47.5469 34.8097 47.8423 33.3011 47.8366 31.2898C47.8366 29.9659 47.7003 28.8636 47.4276 27.983C47.1605 27.1023 46.7798 26.4403 46.2855 25.9972C45.7969 25.554 45.2202 25.3324 44.5554 25.3324C43.5611 25.3324 42.7656 25.8295 42.169 26.8239C41.5724 27.8182 41.2713 29.3068 41.2656 31.2898C41.2656 32.6307 41.3991 33.75 41.6662 34.6477C41.9389 35.5398 42.3224 36.2102 42.8168 36.6591C43.3111 37.1023 43.8906 37.3239 44.5554 37.3239Z" fill="white"/>
<path d="M21.7365 55.1136V52.0625H22.299C22.4922 51.8864 22.674 51.6378 22.8445 51.3168C23.0178 50.9929 23.1641 50.5611 23.2834 50.0213C23.4055 49.4787 23.4865 48.7898 23.5263 47.9545L23.7138 44.2727H28.8956V52.0625H29.9013V55.0966H28.8956V53H22.7422V55.1136H21.7365ZM23.5604 52.0625H27.8899V45.2102H24.6683L24.532 47.9545C24.4979 48.5909 24.4382 49.1676 24.353 49.6847C24.2678 50.1989 24.1584 50.6548 24.0249 51.0526C23.8913 51.4474 23.7365 51.7841 23.5604 52.0625ZM35.7425 49.267V50.2045H32.1289V49.267H35.7425ZM32.3675 46.4545V53H31.3619V46.4545H32.3675ZM36.5096 46.4545V53H35.5039V46.4545H36.5096ZM41.0906 53.1364C40.4599 53.1364 39.9158 52.9972 39.4585 52.7188C39.0039 52.4375 38.6531 52.0455 38.4059 51.5426C38.1616 51.0369 38.0394 50.4489 38.0394 49.7784C38.0394 49.108 38.1616 48.517 38.4059 48.0057C38.6531 47.4915 38.9968 47.0909 39.4371 46.804C39.8803 46.5142 40.3974 46.3693 40.9883 46.3693C41.3292 46.3693 41.6658 46.4261 41.9982 46.5398C42.3306 46.6534 42.6332 46.8381 42.9059 47.0938C43.1786 47.3466 43.396 47.6818 43.5579 48.0994C43.7198 48.517 43.8008 49.0312 43.8008 49.642V50.0682H38.7553V49.1989H42.7781C42.7781 48.8295 42.7042 48.5 42.5565 48.2102C42.4116 47.9205 42.2042 47.6918 41.9343 47.5241C41.6673 47.3565 41.3519 47.2727 40.9883 47.2727C40.5877 47.2727 40.2411 47.3722 39.9485 47.571C39.6587 47.767 39.4357 48.0227 39.2795 48.3381C39.1232 48.6534 39.0451 48.9915 39.0451 49.3523V49.9318C39.0451 50.4261 39.1303 50.8452 39.3008 51.1889C39.4741 51.5298 39.7141 51.7898 40.021 51.9688C40.3278 52.1449 40.6843 52.233 41.0906 52.233C41.3548 52.233 41.5934 52.196 41.8065 52.1222C42.0224 52.0455 42.2085 51.9318 42.3647 51.7812C42.521 51.6278 42.6417 51.4375 42.7269 51.2102L43.6985 51.483C43.5962 51.8125 43.4244 52.1023 43.1829 52.3523C42.9414 52.5994 42.6431 52.7926 42.288 52.9318C41.9329 53.0682 41.5337 53.1364 41.0906 53.1364ZM46.3363 51.517L49.4897 46.4545H50.6488V53H49.6431V47.9375L46.5067 53H45.3306V46.4545H46.3363V51.517ZM48.8249 44.2727H49.7624C49.7624 44.733 49.6033 45.1094 49.2852 45.402C48.967 45.6946 48.5352 45.8409 47.9897 45.8409C47.4528 45.8409 47.0252 45.6946 46.707 45.402C46.3917 45.1094 46.234 44.733 46.234 44.2727H47.1715C47.1715 44.4943 47.2326 44.6889 47.3548 44.8565C47.4798 45.0241 47.6914 45.108 47.9897 45.108C48.288 45.108 48.5011 45.0241 48.6289 44.8565C48.7596 44.6889 48.8249 44.4943 48.8249 44.2727Z" fill="white"/>
</svg>
