<svg width="37" height="18" viewBox="0 0 37 18" fill="none" xmlns="http://www.w3.org/2000/svg">
<path d="M11.1818 1H6.72725C6.47409 1 6.2313 1.10057 6.05229 1.27958C5.87327 1.45859 5.77271 1.70138 5.77271 1.95455V15.9545C5.77271 16.0799 5.7974 16.204 5.84537 16.3198C5.89334 16.4356 5.96365 16.5409 6.05229 16.6295C6.14092 16.7182 6.24615 16.7885 6.36196 16.8364C6.47777 16.8844 6.6019 16.9091 6.72725 16.9091H11.1818C11.3071 16.9091 11.4313 16.8844 11.5471 16.8364C11.6629 16.7885 11.7681 16.7182 11.8568 16.6295C11.9454 16.5409 12.0157 16.4356 12.0637 16.3198C12.1117 16.204 12.1363 16.0799 12.1363 15.9545V1.95455C12.1363 1.70138 12.0358 1.45859 11.8568 1.27958C11.6777 1.10057 11.435 1 11.1818 1ZM30.2727 1H25.8182C25.565 1 25.3222 1.10057 25.1432 1.27958C24.9642 1.45859 24.8636 1.70138 24.8636 1.95455V15.9545C24.8636 16.0799 24.8883 16.204 24.9363 16.3198C24.9842 16.4356 25.0546 16.5409 25.1432 16.6295C25.2318 16.7182 25.3371 16.7885 25.4529 16.8364C25.5687 16.8844 25.6928 16.9091 25.8182 16.9091H30.2727C30.3981 16.9091 30.5222 16.8844 30.638 16.8364C30.7538 16.7885 30.859 16.7182 30.9477 16.6295C31.0363 16.5409 31.1066 16.4356 31.1546 16.3198C31.2026 16.204 31.2273 16.0799 31.2273 15.9545V1.95455C31.2273 1.70138 31.1267 1.45859 30.9477 1.27958C30.7687 1.10057 30.5259 1 30.2727 1Z" fill="#837ECB" stroke="#837ECB" stroke-width="2" stroke-linecap="round" stroke-linejoin="round"/>
<path d="M1 12.7727V5.13637C1 4.88321 1.10057 4.64041 1.27958 4.4614C1.45859 4.28239 1.70138 4.18182 1.95455 4.18182H4.81818C5.07134 4.18182 5.31414 4.28239 5.49315 4.4614C5.67216 4.64041 5.77273 4.88321 5.77273 5.13637V12.7727C5.77273 13.0259 5.67216 13.2687 5.49315 13.4477C5.31414 13.6267 5.07134 13.7273 4.81818 13.7273H1.95455C1.70138 13.7273 1.45859 13.6267 1.27958 13.4477C1.10057 13.2687 1 13.0259 1 12.7727ZM36 12.7727V5.13637C36 4.88321 35.8994 4.64041 35.7204 4.4614C35.5414 4.28239 35.2986 4.18182 35.0455 4.18182H32.1818C31.9287 4.18182 31.6859 4.28239 31.5069 4.4614C31.3278 4.64041 31.2273 4.88321 31.2273 5.13637V12.7727C31.2273 13.0259 31.3278 13.2687 31.5069 13.4477C31.6859 13.6267 31.9287 13.7273 32.1818 13.7273H35.0455C35.2986 13.7273 35.5414 13.6267 35.7204 13.4477C35.8994 13.2687 36 13.0259 36 12.7727ZM12.1364 8.95455H24.8636H12.1364Z" fill="#837ECB"/>
<path d="M12.1364 8.95455H24.8636M1 12.7727V5.13637C1 4.88321 1.10057 4.64041 1.27958 4.4614C1.45859 4.28239 1.70138 4.18182 1.95455 4.18182H4.81818C5.07134 4.18182 5.31414 4.28239 5.49315 4.4614C5.67216 4.64041 5.77273 4.88321 5.77273 5.13637V12.7727C5.77273 13.0259 5.67216 13.2687 5.49315 13.4477C5.31414 13.6267 5.07134 13.7273 4.81818 13.7273H1.95455C1.70138 13.7273 1.45859 13.6267 1.27958 13.4477C1.10057 13.2687 1 13.0259 1 12.7727ZM36 12.7727V5.13637C36 4.88321 35.8994 4.64041 35.7204 4.4614C35.5414 4.28239 35.2986 4.18182 35.0455 4.18182H32.1818C31.9287 4.18182 31.6859 4.28239 31.5069 4.4614C31.3278 4.64041 31.2273 4.88321 31.2273 5.13637V12.7727C31.2273 13.0259 31.3278 13.2687 31.5069 13.4477C31.6859 13.6267 31.9287 13.7273 32.1818 13.7273H35.0455C35.2986 13.7273 35.5414 13.6267 35.7204 13.4477C35.8994 13.2687 36 13.0259 36 12.7727Z" stroke="#837ECB" stroke-width="2" stroke-linecap="round" stroke-linejoin="round"/>
</svg>
