<svg width="65" height="65" viewBox="0 0 65 65" fill="none" xmlns="http://www.w3.org/2000/svg">
<path fill-rule="evenodd" clip-rule="evenodd" d="M44.3181 23.6364C44.3181 26.7707 43.073 29.7767 40.8567 31.9931C38.6403 34.2094 35.6343 35.4545 32.4999 35.4545C29.3656 35.4545 26.3596 34.2094 24.1432 31.9931C21.9269 29.7767 20.6818 26.7707 20.6818 23.6364C20.6818 20.502 21.9269 17.496 24.1432 15.2796C26.3596 13.0633 29.3656 11.8182 32.4999 11.8182C35.6343 11.8182 38.6403 13.0633 40.8567 15.2796C43.073 17.496 44.3181 20.502 44.3181 23.6364ZM38.409 23.6364C38.409 25.2036 37.7865 26.7066 36.6783 27.8147C35.5701 28.9229 34.0671 29.5455 32.4999 29.5455C30.9328 29.5455 29.4298 28.9229 28.3216 27.8147C27.2134 26.7066 26.5909 25.2036 26.5909 23.6364C26.5909 22.0692 27.2134 20.5662 28.3216 19.458C29.4298 18.3498 30.9328 17.7273 32.4999 17.7273C34.0671 17.7273 35.5701 18.3498 36.6783 19.458C37.7865 20.5662 38.409 22.0692 38.409 23.6364Z" fill="#C7C2F0"/>
<path fill-rule="evenodd" clip-rule="evenodd" d="M32.5 0C14.5511 0 0 14.5511 0 32.5C0 50.4489 14.5511 65 32.5 65C50.4489 65 65 50.4489 65 32.5C65 14.5511 50.4489 0 32.5 0ZM5.90909 32.5C5.90909 38.675 8.01568 44.3595 11.5464 48.8741C14.0265 45.6186 17.2255 42.9802 20.8935 41.1649C24.5615 39.3496 28.5994 38.4064 32.692 38.4091C36.732 38.4044 40.7197 39.3223 44.3511 41.0929C47.9824 42.8635 51.1614 45.44 53.6457 48.6259C56.2056 45.2684 57.9293 41.3495 58.674 37.1936C59.4187 33.0376 59.1631 28.7641 57.9283 24.7265C56.6935 20.689 54.515 17.0035 51.573 13.9751C48.6311 10.9467 45.0103 8.66231 41.0102 7.31105C37.0102 5.95978 32.7458 5.58046 28.57 6.20447C24.3943 6.82847 20.4271 8.43786 16.9968 10.8995C13.5665 13.3611 10.7717 16.6042 8.84363 20.3604C6.91555 24.1165 5.90962 28.2779 5.90909 32.5ZM32.5 59.0909C26.3956 59.1008 20.4754 57.0008 15.7418 53.1464C17.6469 50.4182 20.1831 48.1907 23.1343 46.6536C26.0856 45.1165 29.3645 44.3153 32.692 44.3182C35.978 44.3153 39.2173 45.0966 42.1406 46.5971C45.064 48.0975 47.5872 50.2739 49.5005 52.9455C44.7303 56.9252 38.7124 59.1006 32.5 59.0909Z" fill="#C7C2F0"/>
</svg>
